<?xml version="1.0" encoding="UTF-8" standalone="no"?>
<svg
   xmlns:dc="http://purl.org/dc/elements/1.1/"
   xmlns:cc="http://creativecommons.org/ns#"
   xmlns:rdf="http://www.w3.org/1999/02/22-rdf-syntax-ns#"
   xmlns:svg="http://www.w3.org/2000/svg"
   xmlns="http://www.w3.org/2000/svg"
   xmlns:sodipodi="http://sodipodi.sourceforge.net/DTD/sodipodi-0.dtd"
   xmlns:inkscape="http://www.inkscape.org/namespaces/inkscape"
   version="1.1"
   width="230pt"
   height="80pt"
   viewBox="0 0 230 80"
   id="svg20"
   sodipodi:docname="logo.svg"
   inkscape:export-filename="/home/marylicious/Downloads/Rubrica 1(2)-1,Rubrica 1(2)-2,Rubrica 1(2)-3/Rubrica 1(2)-1.svg.png"
   inkscape:export-xdpi="96"
   inkscape:export-ydpi="96"
   inkscape:version="0.92.3 (2405546, 2018-03-11)">
  <metadata
     id="metadata26">
    <rdf:RDF>
      <cc:Work
         rdf:about="">
        <dc:format>image/svg+xml</dc:format>
        <dc:type
           rdf:resource="http://purl.org/dc/dcmitype/StillImage" />
        <dc:title></dc:title>
      </cc:Work>
    </rdf:RDF>
  </metadata>
  <defs
     id="defs24" />
  <sodipodi:namedview
     pagecolor="#ffffff"
     bordercolor="#666666"
     borderopacity="1"
     objecttolerance="10"
     gridtolerance="10"
     guidetolerance="10"
     inkscape:pageopacity="0"
     inkscape:pageshadow="2"
     inkscape:window-width="1323"
     inkscape:window-height="713"
     id="namedview22"
     showgrid="false"
     inkscape:zoom="0.71052632"
     inkscape:cx="229.86964"
     inkscape:cy="126"
     inkscape:window-x="43"
     inkscape:window-y="27"
     inkscape:window-maximized="1"
     inkscape:current-layer="svg20" />
  <g
     id="g18"
     style="enable-background:new"
     transform="translate(-57.166668,-60)">
    <path
       transform="matrix(1,0,0,-1,293.71339,52.04706)"
       d="M 0.827698,0.376472 C 0.827698,0.16856 0.642411,1.4e-5 0.413849,1.4e-5 0.185286,1.4e-5 0,0.16856 0,0.376472 0,0.584384 0.185286,0.75293 0.413849,0.75293 c 0.228562,0 0.413849,-0.168546 0.413849,-0.376458 z"
       id="path10"
       inkscape:connector-curvature="0"
       style="fill:#c4c4c4" />
    <g
       id="g3735"
       transform="translate(2.1111075,1.0555555)">
      <path
         transform="matrix(1,0,0,-1,57.81714,135.62073)"
         id="path4"
         d="M 0,52.762456 C 0,61.046728 6.715728,67.76245 14.999999,67.76245 H 59.49351 c 8.28428,0 15.00002,-6.715726 15.00002,-15 V 14.999992 c 0,-8.284271 -6.71573,-15 -15,-15 H 15.000016 C 6.715745,-8e-6 0,6.715725 0,14.999996 Z"
         inkscape:connector-curvature="0"
         style="fill:#2d89ef" />
      <path
         id="path6"
         d="m 3.238769,22.804038 c 0.640636,1.010644 1.589726,1.849268 2.84727,2.515862 1.281272,0.688102 2.764225,1.03215 4.44886,1.03215 1.732088,0 3.298085,-0.376303 4.697992,-1.128913 1.423636,-0.752609 2.538817,-1.817012 3.345545,-3.193214 0.806724,-1.354694 1.210089,-2.935173 1.210089,-4.741436 0,-1.784759 -0.403365,-3.375989 -1.210089,-4.773692 C 17.771708,11.117093 16.656527,10.031185 15.232891,9.257072 13.832984,8.482962 12.266987,8.095905 10.534899,8.095905 8.873991,8.095905 7.402901,8.429203 6.12163,9.0958 4.864086,9.783899 3.903132,10.633272 3.238769,11.643919 V -1.9e-5 H 0 v 26.061777 h 3.238769 z m 13.239804,-5.515551 c 0,1.333195 -0.296589,2.494362 -0.889771,3.483505 -0.593181,0.989144 -1.399908,1.741753 -2.420179,2.257828 -0.996545,0.516075 -2.099862,0.77411 -3.309953,0.77411 -1.186361,0 -2.289678,-0.268789 -3.30995,-0.806365 C 5.552176,22.48149 4.74545,21.718129 4.128541,20.707484 3.53536,19.71834 3.238769,18.567923 3.238769,17.256234 c 0,-1.333195 0.296591,-2.505115 0.889772,-3.515761 0.616909,-0.989145 1.423635,-1.752506 2.420179,-2.290083 1.020272,-0.516075 2.123589,-0.774112 3.30995,-0.774112 1.210091,0 2.313408,0.258037 3.309953,0.774112 1.020271,0.537577 1.826998,1.300938 2.420179,2.290083 0.593182,1.010646 0.889771,2.193318 0.889771,3.548014 z"
         transform="matrix(1,0,0,-1,88.44238,128.09162)"
         inkscape:connector-curvature="0"
         style="fill:#fffefe" />
      <path
         id="path8"
         d="m 30.956273,1.9e-5 c -1.494816,0 -2.835408,0.225782 -4.021769,0.677347 -1.186364,0.473068 -2.123589,1.118162 -2.811678,1.93528 -0.688089,0.838622 -1.067726,1.795512 -1.138908,2.870668 h 3.345541 c 0.09491,-0.881628 0.545726,-1.601983 1.352453,-2.161063 0.830454,-0.559081 1.910044,-0.838623 3.238769,-0.838623 1.233819,0 2.206636,0.247285 2.918455,0.741857 0.711818,0.494572 1.067722,1.118164 1.067722,1.870772 0,0.774113 -0.379638,1.343945 -1.138908,1.709498 -0.75927,0.387056 -1.93377,0.763361 -3.523494,1.128914 -1.447363,0.344049 -2.633724,0.688098 -3.559086,1.032149 -0.901636,0.365553 -1.68464,0.892379 -2.349001,1.580479 -0.640636,0.709602 -0.960951,1.634237 -0.960951,2.773901 0,0.903131 0.296587,1.731001 0.889769,2.483612 0.593181,0.752609 1.435499,1.343945 2.526953,1.774006 1.091453,0.451567 2.337135,0.677349 3.737043,0.677349 2.159181,0 3.90313,-0.494572 5.231857,-1.483715 1.328725,-0.989144 2.040544,-2.34384 2.135453,-4.064089 h -3.238769 c -0.07118,0.924634 -0.486408,1.666491 -1.245678,2.225572 -0.735546,0.55908 -1.732093,0.838621 -2.989636,0.838621 -1.162634,0 -2.087998,-0.225783 -2.77609,-0.677349 -0.688089,-0.451564 -1.032132,-1.0429 -1.032132,-1.774007 0,-0.580584 0.201679,-1.064403 0.605042,-1.451458 0.42709,-0.365554 0.94909,-0.666598 1.565999,-0.903132 0.640637,-0.215031 1.518545,-0.462317 2.633726,-0.741857 1.399909,-0.344051 2.538815,-0.6881 3.416725,-1.03215 0.87791,-0.322547 1.625316,-0.817119 2.24222,-1.483717 0.640638,-0.666596 0.97282,-1.537471 0.996549,-2.612627 0,-0.96764 -0.296589,-1.838517 -0.88977,-2.612629 C 36.591497,1.709517 35.749177,1.096678 34.657724,0.645113 33.589998,0.21505 32.35618,1.9e-5 30.956273,1.9e-5 Z"
         transform="matrix(1,0,0,-1,88.44238,119.99573)"
         inkscape:connector-curvature="0"
         style="fill:#fffefe" />
      <path
         id="path12"
         d="m 280.03907,-39.776 z m 6.80399,16.920001 c 0.69601,0.911999 1.64401,1.68 2.84402,2.303997 1.19998,0.624 2.556,0.936 4.068,0.936 1.72799,0 3.30001,-0.431998 4.716,-1.295997 1.44,-0.84 2.56799,-2.028004 3.384,-3.564003 0.81601,-1.535999 1.224,-3.299999 1.224,-5.291996 0,-1.991997 -0.40799,-3.78 -1.224,-5.364007 -0.81601,-1.559995 -1.944,-2.783995 -3.384,-3.671995 -1.41599,-0.864 -2.98801,-1.296 -4.716,-1.296 -1.512,0 -2.85602,0.299996 -4.03202,0.899994 -1.17599,0.624001 -2.13598,1.392006 -2.88,2.304001 V -49.208 h -4.10398 v 29.267997 h 4.10398 z m 12.06003,-6.911999 c 0,1.367996 -0.288,2.543999 -0.86402,3.527996 -0.552,1.007999 -1.29599,1.764 -2.23199,2.268002 -0.91202,0.528 -1.896,0.792 -2.952,0.792 -1.03201,0 -2.01599,-0.264 -2.95199,-0.792 -0.91202,-0.528 -1.65601,-1.296002 -2.23203,-2.304001 -0.552,-1.008004 -0.828,-2.195999 -0.828,-3.563996 0,-1.368003 0.276,-2.568002 0.828,-3.600007 0.57602,-1.008003 1.32001,-1.776001 2.23203,-2.304001 0.936,-0.528 1.91998,-0.792 2.95199,-0.792 1.056,0 2.03998,0.264 2.952,0.792 0.936,0.552005 1.67999,1.344005 2.23199,2.376 0.57602,1.032005 0.86402,2.232003 0.86402,3.600007 z M 304.4375,-39.776 Z m 20.88,10.403998 c 0,-0.743996 -0.048,-1.416 -0.144,-2.015998 h -15.156 c 0.12,-1.584 0.708,-2.856005 1.764,-3.816004 1.056,-0.959996 2.352,-1.439995 3.888,-1.439995 2.208,0 3.768,0.923999 4.68,2.771999 h 4.428 c -0.6,-1.824 -1.692,-3.324 -3.276,-4.5 -1.56,-1.152003 -3.504,-1.728 -5.832,-1.728 -1.896,0 -3.6,0.42 -5.112,1.259995 -1.488,0.864006 -2.664,2.064005 -3.528,3.600006 -0.84,1.559999 -1.26,3.360001 -1.26,5.400002 0,2.040001 0.408,3.827996 1.224,5.363995 0.84,1.560002 2.004,2.760002 3.492,3.600002 1.512,0.84 3.24,1.259998 5.184,1.259998 1.872,0 3.54,-0.408001 5.004,-1.223998 1.464,-0.816002 2.604,-1.968003 3.42,-3.456002 0.81603,-1.464001 1.224,-3.156002 1.224,-5.076 z m -4.284,1.295998 c -0.024,1.512004 -0.564,2.724006 -1.62,3.636005 -1.056,0.911999 -2.364,1.368 -3.924,1.368 -1.41597,0 -2.628,-0.456001 -3.63597,-1.368 C 310.8455,-25.328 310.24549,-26.54 310.0535,-28.076004 Z M 326.65626,-39.776 Z m 6.80399,16.956 c 0.6,1.008 1.39202,1.788002 2.376,2.34 1.008,0.576 2.19599,0.863998 3.564,0.863998 v -4.247997 h -1.04398 c -1.608,0 -2.832,-0.408001 -3.67199,-1.224003 -0.81601,-0.815998 -1.22403,-2.231998 -1.22403,-4.247997 V -39.776 h -4.10398 v 19.835997 h 4.10398 z m 7.01242,-16.956 z m 11.01599,16.487998 h -3.672 V -39.776 h -4.13998 v 16.487998 h -2.34 v 3.347999 h 2.34 V -18.536 c 0,2.280003 0.6,3.936002 1.79998,4.967999 1.224,1.056 3.13199,1.584 5.724,1.584 v -3.419998 c -1.24801,0 -2.12399,-0.240002 -2.62799,-0.720001 -0.504,-0.455998 -0.75601,-1.259999 -0.75601,-2.412 v -1.404003 h 3.672 z M 352.42579,-39.776 Z m 9.9,-0.324 c -1.56,0 -2.96399,0.276001 -4.21201,0.827995 -1.224,0.575997 -2.19598,1.344005 -2.91599,2.304001 -0.72,0.984004 -1.104,2.075997 -1.152,3.276004 h 4.24801 c 0.072,-0.840007 0.46799,-1.548007 1.18799,-2.124 0.74399,-0.551998 1.668,-0.827999 2.772,-0.827999 1.15201,0 2.04001,0.215999 2.66401,0.647995 0.64798,0.456004 0.97198,1.031998 0.97198,1.728005 0,0.743996 -0.35998,1.295999 -1.07999,1.655999 -0.69601,0.36 -1.81201,0.755997 -3.34799,1.187996 -1.488,0.408005 -2.70001,0.804008 -3.63601,1.188004 -0.93601,0.383995 -1.75199,0.972 -2.448,1.764 -0.672,0.792 -1.008,1.836002 -1.008,3.132 0,1.056 0.31201,2.015998 0.93601,2.88 0.62399,0.888001 1.51199,1.584 2.664,2.087998 1.17599,0.504002 2.51999,0.756 4.03198,0.756 2.25601,0 4.06799,-0.576 5.436,-1.728 1.392,-1.127998 2.13602,-2.675998 2.232,-4.643997 h -4.10398 c -0.072,0.888 -0.432,1.596 -1.08001,2.124 -0.64799,0.528 -1.52399,0.792 -2.62799,0.792 -1.08,0 -1.908,-0.203999 -2.48401,-0.612 C 358.7978,-24.092 358.5098,-24.632 358.5098,-25.304 c 0,-0.528 0.19199,-0.972001 0.576,-1.332002 0.384,-0.360001 0.85198,-0.648003 1.40399,-0.863998 0.552,-0.192002 1.36801,-0.444 2.44799,-0.755997 1.44001,-0.384003 2.616,-0.780007 3.52802,-1.188003 0.936,-0.384003 1.73999,-0.96 2.41199,-1.727998 0.67199,-0.767997 1.01999,-1.788002 1.044,-3.060006 0,-1.127996 -0.31201,-2.136001 -0.936,-3.024002 -0.62399,-0.887993 -1.51199,-1.583992 -2.664,-2.087994 -1.12799,-0.504 -2.45999,-0.756 -3.996,-0.756 z m 9.33047,0.324 z m 11.30402,-0.324 c -1.87201,0 -3.56403,0.42 -5.07602,1.259995 -1.512,0.864006 -2.70002,2.064005 -3.564,3.600006 -0.86398,1.559999 -1.29599,3.360001 -1.29599,5.400002 0,2.015999 0.444,3.803993 1.332,5.363995 0.888,1.560002 2.10001,2.760002 3.63599,3.600002 1.53601,0.84 3.25201,1.259998 5.14801,1.259998 1.896,0 3.612,-0.419998 5.14798,-1.259998 1.53601,-0.84 2.74802,-2.04 3.63602,-3.600002 0.888,-1.560002 1.332,-3.347996 1.332,-5.363995 0,-2.015999 -0.456,-3.804002 -1.36802,-5.364007 -0.91198,-1.559996 -2.15997,-2.771995 -3.74398,-3.636001 C 386.58427,-39.68 384.85627,-40.1 382.96028,-40.1 Z m 0,3.563995 c 1.056,0 2.03997,0.251999 2.95199,0.756005 0.93601,0.504 1.69199,1.259994 2.26798,2.268 0.57602,1.008001 0.86401,2.232001 0.86401,3.672003 0,1.439995 -0.276,2.651993 -0.828,3.635994 -0.552,1.008 -1.284,1.764 -2.19599,2.268003 -0.91201,0.504 -1.89602,0.756 -2.95202,0.756 -1.056,0 -2.03998,-0.252 -2.952,-0.756 -0.888,-0.504003 -1.59601,-1.260003 -2.12399,-2.268003 -0.52799,-0.984001 -0.79199,-2.195999 -0.79199,-3.635994 0,-2.136001 0.54001,-3.792001 1.61999,-4.968003 1.10401,-1.152 2.48401,-1.728005 4.14002,-1.728005 z M 394.61329,-39.776 Z m 11.01599,16.487998 h -3.67199 V -39.776 h -4.13999 v 16.487998 h -2.34 v 3.347999 h 2.34 V -18.536 c 0,2.280003 0.6,3.936002 1.79999,4.967999 1.224,1.056 3.13199,1.584 5.724,1.584 v -3.419998 c -1.24802,0 -2.12399,-0.240002 -2.62799,-0.720001 -0.504,-0.455998 -0.75601,-1.259999 -0.75601,-2.412 v -1.404003 h 3.67199 z M 406.5664,-39.776 Z m 7.488,16.487998 v -10.979997 c 0,-0.744001 0.168,-1.284004 0.504,-1.620001 0.36004,-0.312006 0.96,-0.468004 1.8,-0.468004 h 2.52003 V -39.776 h -3.24003 c -1.848,0 -3.264,0.432 -4.248,1.295995 -0.984,0.864006 -1.476,2.268006 -1.476,4.212006 v 10.979997 h -2.34 v 3.347999 h 2.34 v 4.932004 h 4.14 v -4.932004 h 4.82403 v -3.347999 z"
         transform="matrix(1,0,0,-1,-136,77.224)"
         inkscape:connector-curvature="0"
         style="fill:#666464" />
    </g>
  </g>
</svg>
